# Blender v2.83.2 OBJ File: ''
# www.blender.org
o StationClock_hour_LOD0
v 0.102000 0.294301 -0.014430
v 0.102000 -0.085760 -0.020000
v 0.102000 0.300302 -0.000000
v 0.102000 -0.095760 -0.000000
v 0.102000 0.294301 0.014429
v 0.102000 -0.085760 0.019999
v 0.107000 -0.085760 -0.020000
v 0.107000 0.294301 -0.014430
v 0.112000 0.300302 -0.000000
v 0.112000 -0.095760 -0.000000
v 0.112000 -0.095760 -0.000000
v 0.112000 0.300302 -0.000000
v 0.107000 0.294301 0.014429
v 0.107000 -0.085760 0.019999
v 0.107000 -0.085760 0.019999
v 0.102000 -0.085760 0.019999
v 0.102000 -0.095760 -0.000000
v 0.112000 -0.095760 -0.000000
v 0.112000 -0.095760 -0.000000
v 0.102000 -0.095760 -0.000000
v 0.102000 -0.085760 -0.020000
v 0.107000 -0.085760 -0.020000
v 0.107000 -0.085760 -0.020000
v 0.102000 -0.085760 -0.020000
v 0.102000 0.294301 -0.014430
v 0.107000 0.294301 -0.014430
v 0.107000 0.294301 0.014429
v 0.102000 0.294301 0.014429
v 0.102000 -0.085760 0.019999
v 0.107000 -0.085760 0.019999
v 0.102000 0.294301 0.014429
v 0.107000 0.294301 0.014429
v 0.112000 0.300302 -0.000000
v 0.102000 0.300302 -0.000000
v 0.102000 0.294301 -0.014430
v 0.102000 0.300302 -0.000000
v 0.112000 0.300302 -0.000000
v 0.107000 0.294301 -0.014430
vt -0.014430 0.294301
vt -0.020000 -0.085760
vt -0.000000 0.300302
vt -0.000000 -0.095760
vt 0.014429 0.294301
vt 0.020000 -0.085760
vt 0.020000 -0.085760
vt 0.014430 0.294301
vt 0.000000 0.300302
vt 0.000000 -0.095760
vt 0.000000 -0.095760
vt 0.000000 0.300302
vt -0.014429 0.294301
vt -0.020000 -0.085760
vt -0.107000 -0.020000
vt -0.102000 -0.020000
vt -0.102000 0.000000
vt -0.112000 0.000000
vt -0.112000 0.000000
vt -0.102000 0.000000
vt -0.102000 0.020000
vt -0.107000 0.020000
vt -0.107000 -0.085760
vt -0.102000 -0.085760
vt -0.102000 0.294301
vt -0.107000 0.294301
vt 0.107000 0.294301
vt 0.102000 0.294301
vt 0.102000 -0.085760
vt 0.107000 -0.085760
vt 0.102000 -0.014429
vt 0.107000 -0.014429
vt 0.112000 0.000000
vt 0.102000 0.000000
vt 0.102000 0.014430
vt 0.102000 0.000000
vt 0.112000 0.000000
vt 0.107000 0.014430
vn -1.0000 0.0000 0.0000
vn 0.9604 0.0020 -0.2787
vn 0.9604 0.0020 0.2787
vn 0.0000 -0.8944 0.4472
vn 0.0000 -0.8944 -0.4472
vn 0.0000 0.0147 -0.9999
vn 0.0000 0.0147 0.9999
vn 0.0000 0.9233 0.3840
vn 0.0000 0.9233 -0.3840
s 1
f 1/1/1 2/2/1 3/3/1
f 2/2/1 4/4/1 3/3/1
f 3/3/1 4/4/1 5/5/1
f 4/4/1 6/6/1 5/5/1
f 7/7/2 8/8/2 9/9/2
f 10/10/2 7/7/2 9/9/2
f 11/11/3 12/12/3 13/13/3
f 14/14/3 11/11/3 13/13/3
f 15/15/4 16/16/4 17/17/4
f 18/18/4 15/15/4 17/17/4
f 19/19/5 20/20/5 21/21/5
f 22/22/5 19/19/5 21/21/5
f 23/23/6 24/24/6 25/25/6
f 26/26/6 23/23/6 25/25/6
f 27/27/7 28/28/7 29/29/7
f 30/30/7 27/27/7 29/29/7
f 31/31/8 32/32/8 33/33/8
f 34/34/8 31/31/8 33/33/8
f 35/35/9 36/36/9 37/37/9
f 38/38/9 35/35/9 37/37/9
